<?xml version="1.0" encoding="us-ascii" standalone="no"?><svg xmlns="http://www.w3.org/2000/svg" xmlns:xlink="http://www.w3.org/1999/xlink" contentStyleType="text/css" height="1085px" preserveAspectRatio="none" style="width:963px;height:1085px;background:#FFFFFF;" version="1.1" viewBox="0 0 963 1085" width="963px" zoomAndPan="magnify"><defs/><g><text fill="#000000" font-family="sans-serif" font-size="14" font-weight="bold" lengthAdjust="spacing" textLength="303" x="326.25" y="28.5352">URL Shortening Service Sequence Diagram</text><rect fill="#FFFFFF" height="177.8633" style="stroke:#181818;stroke-width:1.0;" width="10" x="314.5" y="193.5977"/><rect fill="#FFFFFF" height="87.9316" style="stroke:#181818;stroke-width:1.0;" width="10" x="314.5" y="444.082"/><rect fill="#FFFFFF" height="87.9316" style="stroke:#181818;stroke-width:1.0;" width="10" x="314.5" y="604.6348"/><rect fill="#FFFFFF" height="68.6211" style="stroke:#181818;stroke-width:1.0;" width="10" x="314.5" y="765.1875"/><rect fill="#FFFFFF" height="87.9316" style="stroke:#181818;stroke-width:1.0;" width="10" x="314.5" y="898.4297"/><rect fill="#FFFFFF" height="29.3105" style="stroke:#181818;stroke-width:1.0;" width="10" x="876.5" y="222.9082"/><rect fill="#FFFFFF" height="29.3105" style="stroke:#181818;stroke-width:1.0;" width="10" x="876.5" y="305.8398"/><rect fill="#FFFFFF" height="29.3105" style="stroke:#181818;stroke-width:1.0;" width="10" x="876.5" y="473.3926"/><rect fill="#FFFFFF" height="29.3105" style="stroke:#181818;stroke-width:1.0;" width="10" x="876.5" y="633.9453"/><rect fill="#FFFFFF" height="29.3105" style="stroke:#181818;stroke-width:1.0;" width="10" x="876.5" y="927.7402"/><rect fill="none" height="75.9316" style="stroke:#000000;stroke-width:1.5;" width="719" x="227.5" y="267.2188"/><rect fill="none" height="46.6211" style="stroke:#000000;stroke-width:1.5;" width="401.5" x="10" y="780.1875"/><line style="stroke:#181818;stroke-width:0.5;stroke-dasharray:5.0,5.0;" x1="38" x2="38" y1="118.9766" y2="1004.3613"/><line style="stroke:#181818;stroke-width:0.5;stroke-dasharray:5.0,5.0;" x1="319.5" x2="319.5" y1="118.9766" y2="1004.3613"/><line style="stroke:#181818;stroke-width:0.5;stroke-dasharray:5.0,5.0;" x1="881.5" x2="881.5" y1="118.9766" y2="1004.3613"/><text fill="#000000" font-family="sans-serif" font-size="14" lengthAdjust="spacing" textLength="31" x="20" y="116.0234">User</text><ellipse cx="38.5" cy="50.9883" fill="#E2E2F0" rx="8" ry="8" style="stroke:#181818;stroke-width:0.5;"/><path d="M38.5,58.9883 L38.5,85.9883 M25.5,66.9883 L51.5,66.9883 M38.5,85.9883 L25.5,100.9883 M38.5,85.9883 L51.5,100.9883 " fill="none" style="stroke:#181818;stroke-width:0.5;"/><text fill="#000000" font-family="sans-serif" font-size="14" lengthAdjust="spacing" textLength="31" x="20" y="1016.8965">User</text><ellipse cx="38.5" cy="1028.3496" fill="#E2E2F0" rx="8" ry="8" style="stroke:#181818;stroke-width:0.5;"/><path d="M38.5,1036.3496 L38.5,1063.3496 M25.5,1044.3496 L51.5,1044.3496 M38.5,1063.3496 L25.5,1078.3496 M38.5,1063.3496 L51.5,1078.3496 " fill="none" style="stroke:#181818;stroke-width:0.5;"/><text fill="#000000" font-family="sans-serif" font-size="14" lengthAdjust="spacing" textLength="158" x="237.5" y="116.0234">URL Shortening Service</text><ellipse cx="319.5" cy="86.4883" fill="#E2E2F0" rx="12" ry="12" style="stroke:#181818;stroke-width:0.5;"/><line style="stroke:#181818;stroke-width:0.5;" x1="307.5" x2="331.5" y1="100.4883" y2="100.4883"/><text fill="#000000" font-family="sans-serif" font-size="14" lengthAdjust="spacing" textLength="158" x="237.5" y="1016.8965">URL Shortening Service</text><ellipse cx="319.5" cy="1035.8496" fill="#E2E2F0" rx="12" ry="12" style="stroke:#181818;stroke-width:0.5;"/><line style="stroke:#181818;stroke-width:0.5;" x1="307.5" x2="331.5" y1="1049.8496" y2="1049.8496"/><text fill="#000000" font-family="sans-serif" font-size="14" lengthAdjust="spacing" textLength="104" x="826.5" y="116.0234">Redis Database</text><path d="M863.5,66.4883 C863.5,56.4883 881.5,56.4883 881.5,56.4883 C881.5,56.4883 899.5,56.4883 899.5,66.4883 L899.5,92.4883 C899.5,102.4883 881.5,102.4883 881.5,102.4883 C881.5,102.4883 863.5,102.4883 863.5,92.4883 L863.5,66.4883 " fill="#E2E2F0" style="stroke:#181818;stroke-width:1.5;"/><path d="M863.5,66.4883 C863.5,76.4883 881.5,76.4883 881.5,76.4883 C881.5,76.4883 899.5,76.4883 899.5,66.4883 " fill="none" style="stroke:#181818;stroke-width:1.5;"/><text fill="#000000" font-family="sans-serif" font-size="14" lengthAdjust="spacing" textLength="104" x="826.5" y="1016.8965">Redis Database</text><path d="M863.5,1029.8496 C863.5,1019.8496 881.5,1019.8496 881.5,1019.8496 C881.5,1019.8496 899.5,1019.8496 899.5,1029.8496 L899.5,1055.8496 C899.5,1065.8496 881.5,1065.8496 881.5,1065.8496 C881.5,1065.8496 863.5,1065.8496 863.5,1055.8496 L863.5,1029.8496 " fill="#E2E2F0" style="stroke:#181818;stroke-width:1.5;"/><path d="M863.5,1029.8496 C863.5,1039.8496 881.5,1039.8496 881.5,1039.8496 C881.5,1039.8496 899.5,1039.8496 899.5,1029.8496 " fill="none" style="stroke:#181818;stroke-width:1.5;"/><rect fill="#FFFFFF" height="177.8633" style="stroke:#181818;stroke-width:1.0;" width="10" x="314.5" y="193.5977"/><rect fill="#FFFFFF" height="87.9316" style="stroke:#181818;stroke-width:1.0;" width="10" x="314.5" y="444.082"/><rect fill="#FFFFFF" height="87.9316" style="stroke:#181818;stroke-width:1.0;" width="10" x="314.5" y="604.6348"/><rect fill="#FFFFFF" height="68.6211" style="stroke:#181818;stroke-width:1.0;" width="10" x="314.5" y="765.1875"/><rect fill="#FFFFFF" height="87.9316" style="stroke:#181818;stroke-width:1.0;" width="10" x="314.5" y="898.4297"/><rect fill="#FFFFFF" height="29.3105" style="stroke:#181818;stroke-width:1.0;" width="10" x="876.5" y="222.9082"/><rect fill="#FFFFFF" height="29.3105" style="stroke:#181818;stroke-width:1.0;" width="10" x="876.5" y="305.8398"/><rect fill="#FFFFFF" height="29.3105" style="stroke:#181818;stroke-width:1.0;" width="10" x="876.5" y="473.3926"/><rect fill="#FFFFFF" height="29.3105" style="stroke:#181818;stroke-width:1.0;" width="10" x="876.5" y="633.9453"/><rect fill="#FFFFFF" height="29.3105" style="stroke:#181818;stroke-width:1.0;" width="10" x="876.5" y="927.7402"/><rect fill="#EEEEEE" height="3" style="stroke:#EEEEEE;stroke-width:1.0;" width="956.5" x="0" y="149.6318"/><line style="stroke:#000000;stroke-width:1.0;" x1="0" x2="956.5" y1="149.6318" y2="149.6318"/><line style="stroke:#000000;stroke-width:1.0;" x1="0" x2="956.5" y1="152.6318" y2="152.6318"/><rect fill="#EEEEEE" height="23.3105" style="stroke:#000000;stroke-width:2.0;" width="449" x="253.75" y="138.9766"/><text fill="#000000" font-family="sans-serif" font-size="13" font-weight="bold" lengthAdjust="spacing" textLength="431" x="259.75" y="155.5449">User Submits a Long URL and Receives a Short URL in Response</text><polygon fill="#181818" points="302.5,189.5977,312.5,193.5977,302.5,197.5977,306.5,193.5977" style="stroke:#181818;stroke-width:1.0;"/><line style="stroke:#181818;stroke-width:1.0;" x1="38.5" x2="308.5" y1="193.5977" y2="193.5977"/><text fill="#000000" font-family="sans-serif" font-size="13" lengthAdjust="spacing" textLength="208" x="45.5" y="188.8555">POST /shorten { "url": "long_url" }</text><polygon fill="#181818" points="864.5,218.9082,874.5,222.9082,864.5,226.9082,868.5,222.9082" style="stroke:#181818;stroke-width:1.0;"/><line style="stroke:#181818;stroke-width:1.0;" x1="324.5" x2="870.5" y1="222.9082" y2="222.9082"/><text fill="#000000" font-family="sans-serif" font-size="13" lengthAdjust="spacing" textLength="134" x="331.5" y="218.166">GET url_sha1_base62</text><polygon fill="#181818" points="335.5,248.2188,325.5,252.2188,335.5,256.2188,331.5,252.2188" style="stroke:#181818;stroke-width:1.0;"/><line style="stroke:#181818;stroke-width:1.0;stroke-dasharray:2.0,2.0;" x1="329.5" x2="880.5" y1="252.2188" y2="252.2188"/><text fill="#000000" font-family="sans-serif" font-size="13" lengthAdjust="spacing" textLength="133" x="341.5" y="247.4766">short_code (if exists)</text><path d="M227.5,267.2188 L289.5,267.2188 L289.5,274.5293 L279.5,284.5293 L227.5,284.5293 L227.5,267.2188 " fill="#EEEEEE" style="stroke:#000000;stroke-width:1.5;"/><rect fill="none" height="75.9316" style="stroke:#000000;stroke-width:1.5;" width="719" x="227.5" y="267.2188"/><text fill="#000000" font-family="sans-serif" font-size="13" font-weight="bold" lengthAdjust="spacing" textLength="17" x="242.5" y="280.7871">alt</text><text fill="#000000" font-family="sans-serif" font-size="11" font-weight="bold" lengthAdjust="spacing" textLength="151" x="304.5" y="279.8535">[short_code does not exist]</text><polygon fill="#181818" points="864.5,301.8398,874.5,305.8398,864.5,309.8398,868.5,305.8398" style="stroke:#181818;stroke-width:1.0;"/><line style="stroke:#181818;stroke-width:1.0;" x1="324.5" x2="870.5" y1="305.8398" y2="305.8398"/><text fill="#000000" font-family="sans-serif" font-size="13" lengthAdjust="spacing" textLength="533" x="331.5" y="301.0977">SET {short_code}, {long_url} and SET {url_sha1_base62}, {short_code} with TTL=24hrs</text><polygon fill="#181818" points="335.5,331.1504,325.5,335.1504,335.5,339.1504,331.5,335.1504" style="stroke:#181818;stroke-width:1.0;"/><line style="stroke:#181818;stroke-width:1.0;stroke-dasharray:2.0,2.0;" x1="329.5" x2="880.5" y1="335.1504" y2="335.1504"/><text fill="#000000" font-family="sans-serif" font-size="13" lengthAdjust="spacing" textLength="18" x="341.5" y="330.4082">OK</text><polygon fill="#181818" points="49.5,367.4609,39.5,371.4609,49.5,375.4609,45.5,371.4609" style="stroke:#181818;stroke-width:1.0;"/><line style="stroke:#181818;stroke-width:1.0;stroke-dasharray:2.0,2.0;" x1="43.5" x2="318.5" y1="371.4609" y2="371.4609"/><text fill="#000000" font-family="sans-serif" font-size="13" lengthAdjust="spacing" textLength="118" x="55.5" y="366.7188">{ "url": "short_url" }</text><rect fill="#EEEEEE" height="3" style="stroke:#EEEEEE;stroke-width:1.0;" width="956.5" x="0" y="400.1162"/><line style="stroke:#000000;stroke-width:1.0;" x1="0" x2="956.5" y1="400.1162" y2="400.1162"/><line style="stroke:#000000;stroke-width:1.0;" x1="0" x2="956.5" y1="403.1162" y2="403.1162"/><rect fill="#EEEEEE" height="23.3105" style="stroke:#000000;stroke-width:2.0;" width="497" x="229.75" y="389.4609"/><text fill="#000000" font-family="sans-serif" font-size="13" font-weight="bold" lengthAdjust="spacing" textLength="479" x="235.75" y="406.0293">User Visits the Short URL and Gets Redirected to the Original Long URL</text><polygon fill="#181818" points="302.5,440.082,312.5,444.082,302.5,448.082,306.5,444.082" style="stroke:#181818;stroke-width:1.0;"/><line style="stroke:#181818;stroke-width:1.0;" x1="38.5" x2="308.5" y1="444.082" y2="444.082"/><text fill="#000000" font-family="sans-serif" font-size="13" lengthAdjust="spacing" textLength="113" x="45.5" y="439.3398">GET /{short_code}</text><polygon fill="#181818" points="864.5,469.3926,874.5,473.3926,864.5,477.3926,868.5,473.3926" style="stroke:#181818;stroke-width:1.0;"/><line style="stroke:#181818;stroke-width:1.0;" x1="324.5" x2="870.5" y1="473.3926" y2="473.3926"/><text fill="#000000" font-family="sans-serif" font-size="13" lengthAdjust="spacing" textLength="106" x="331.5" y="468.6504">GET {short_code}</text><polygon fill="#181818" points="335.5,498.7031,325.5,502.7031,335.5,506.7031,331.5,502.7031" style="stroke:#181818;stroke-width:1.0;"/><line style="stroke:#181818;stroke-width:1.0;stroke-dasharray:2.0,2.0;" x1="329.5" x2="880.5" y1="502.7031" y2="502.7031"/><text fill="#000000" font-family="sans-serif" font-size="13" lengthAdjust="spacing" textLength="52" x="341.5" y="497.9609">long_url</text><polygon fill="#181818" points="49.5,528.0137,39.5,532.0137,49.5,536.0137,45.5,532.0137" style="stroke:#181818;stroke-width:1.0;"/><line style="stroke:#181818;stroke-width:1.0;stroke-dasharray:2.0,2.0;" x1="43.5" x2="318.5" y1="532.0137" y2="532.0137"/><text fill="#000000" font-family="sans-serif" font-size="13" lengthAdjust="spacing" textLength="152" x="55.5" y="527.2715">302 Redirect to long_url</text><rect fill="#EEEEEE" height="3" style="stroke:#EEEEEE;stroke-width:1.0;" width="956.5" x="0" y="560.6689"/><line style="stroke:#000000;stroke-width:1.0;" x1="0" x2="956.5" y1="560.6689" y2="560.6689"/><line style="stroke:#000000;stroke-width:1.0;" x1="0" x2="956.5" y1="563.6689" y2="563.6689"/><rect fill="#EEEEEE" height="23.3105" style="stroke:#000000;stroke-width:2.0;" width="598" x="179.25" y="550.0137"/><text fill="#000000" font-family="sans-serif" font-size="13" font-weight="bold" lengthAdjust="spacing" textLength="580" x="185.25" y="566.582">User Attempts to Access an Expired Short URL and Receives an Appropriate Response</text><polygon fill="#181818" points="302.5,600.6348,312.5,604.6348,302.5,608.6348,306.5,604.6348" style="stroke:#181818;stroke-width:1.0;"/><line style="stroke:#181818;stroke-width:1.0;" x1="38.5" x2="308.5" y1="604.6348" y2="604.6348"/><text fill="#000000" font-family="sans-serif" font-size="13" lengthAdjust="spacing" textLength="167" x="45.5" y="599.8926">GET /{expired_short_code}</text><polygon fill="#181818" points="864.5,629.9453,874.5,633.9453,864.5,637.9453,868.5,633.9453" style="stroke:#181818;stroke-width:1.0;"/><line style="stroke:#181818;stroke-width:1.0;" x1="324.5" x2="870.5" y1="633.9453" y2="633.9453"/><text fill="#000000" font-family="sans-serif" font-size="13" lengthAdjust="spacing" textLength="160" x="331.5" y="629.2031">GET {expired_short_code}</text><polygon fill="#181818" points="335.5,659.2559,325.5,663.2559,335.5,667.2559,331.5,663.2559" style="stroke:#181818;stroke-width:1.0;"/><line style="stroke:#181818;stroke-width:1.0;stroke-dasharray:2.0,2.0;" x1="329.5" x2="880.5" y1="663.2559" y2="663.2559"/><text fill="#000000" font-family="sans-serif" font-size="13" lengthAdjust="spacing" textLength="16" x="341.5" y="658.5137">nil</text><polygon fill="#181818" points="49.5,688.5664,39.5,692.5664,49.5,696.5664,45.5,692.5664" style="stroke:#181818;stroke-width:1.0;"/><line style="stroke:#181818;stroke-width:1.0;stroke-dasharray:2.0,2.0;" x1="43.5" x2="318.5" y1="692.5664" y2="692.5664"/><text fill="#000000" font-family="sans-serif" font-size="13" lengthAdjust="spacing" textLength="131" x="55.5" y="687.8242">404 Error HTML Page</text><rect fill="#EEEEEE" height="3" style="stroke:#EEEEEE;stroke-width:1.0;" width="956.5" x="0" y="721.2217"/><line style="stroke:#000000;stroke-width:1.0;" x1="0" x2="956.5" y1="721.2217" y2="721.2217"/><line style="stroke:#000000;stroke-width:1.0;" x1="0" x2="956.5" y1="724.2217" y2="724.2217"/><rect fill="#EEEEEE" height="23.3105" style="stroke:#000000;stroke-width:2.0;" width="439" x="258.75" y="710.5664"/><text fill="#000000" font-family="sans-serif" font-size="13" font-weight="bold" lengthAdjust="spacing" textLength="421" x="264.75" y="727.1348">User Submits an Invalid Long URL and Gets an Error Response</text><polygon fill="#181818" points="302.5,761.1875,312.5,765.1875,302.5,769.1875,306.5,765.1875" style="stroke:#181818;stroke-width:1.0;"/><line style="stroke:#181818;stroke-width:1.0;" x1="38.5" x2="308.5" y1="765.1875" y2="765.1875"/><text fill="#000000" font-family="sans-serif" font-size="13" lengthAdjust="spacing" textLength="257" x="45.5" y="760.4453">POST /shorten { "url": "invalid_long_url" }</text><path d="M10,780.1875 L72,780.1875 L72,787.498 L62,797.498 L10,797.498 L10,780.1875 " fill="#EEEEEE" style="stroke:#000000;stroke-width:1.5;"/><rect fill="none" height="46.6211" style="stroke:#000000;stroke-width:1.5;" width="401.5" x="10" y="780.1875"/><text fill="#000000" font-family="sans-serif" font-size="13" font-weight="bold" lengthAdjust="spacing" textLength="17" x="25" y="793.7559">alt</text><text fill="#000000" font-family="sans-serif" font-size="11" font-weight="bold" lengthAdjust="spacing" textLength="100" x="87" y="792.8223">[invalid_long_url]</text><polygon fill="#181818" points="49.5,814.8086,39.5,818.8086,49.5,822.8086,45.5,818.8086" style="stroke:#181818;stroke-width:1.0;"/><line style="stroke:#181818;stroke-width:1.0;stroke-dasharray:2.0,2.0;" x1="43.5" x2="313.5" y1="818.8086" y2="818.8086"/><text fill="#000000" font-family="sans-serif" font-size="13" lengthAdjust="spacing" textLength="104" x="55.5" y="814.0664">400 Bad Request</text><rect fill="#EEEEEE" height="3" style="stroke:#EEEEEE;stroke-width:1.0;" width="956.5" x="0" y="854.4639"/><line style="stroke:#000000;stroke-width:1.0;" x1="0" x2="956.5" y1="854.4639" y2="854.4639"/><line style="stroke:#000000;stroke-width:1.0;" x1="0" x2="956.5" y1="857.4639" y2="857.4639"/><rect fill="#EEEEEE" height="23.3105" style="stroke:#000000;stroke-width:2.0;" width="773" x="91.75" y="843.8086"/><text fill="#000000" font-family="sans-serif" font-size="13" font-weight="bold" lengthAdjust="spacing" textLength="755" x="97.75" y="860.377">User Submits the Same Long URL Multiple Times and Receives the Same Short URL Within the 24-hour Duration</text><polygon fill="#181818" points="302.5,894.4297,312.5,898.4297,302.5,902.4297,306.5,898.4297" style="stroke:#181818;stroke-width:1.0;"/><line style="stroke:#181818;stroke-width:1.0;" x1="38.5" x2="308.5" y1="898.4297" y2="898.4297"/><text fill="#000000" font-family="sans-serif" font-size="13" lengthAdjust="spacing" textLength="248" x="45.5" y="893.6875">POST /shorten { "url": "same_long_url" }</text><polygon fill="#181818" points="864.5,923.7402,874.5,927.7402,864.5,931.7402,868.5,927.7402" style="stroke:#181818;stroke-width:1.0;"/><line style="stroke:#181818;stroke-width:1.0;" x1="324.5" x2="870.5" y1="927.7402" y2="927.7402"/><text fill="#000000" font-family="sans-serif" font-size="13" lengthAdjust="spacing" textLength="134" x="331.5" y="922.998">GET url_sha1_base62</text><polygon fill="#181818" points="335.5,953.0508,325.5,957.0508,335.5,961.0508,331.5,957.0508" style="stroke:#181818;stroke-width:1.0;"/><line style="stroke:#181818;stroke-width:1.0;stroke-dasharray:2.0,2.0;" x1="329.5" x2="880.5" y1="957.0508" y2="957.0508"/><text fill="#000000" font-family="sans-serif" font-size="13" lengthAdjust="spacing" textLength="70" x="341.5" y="952.3086">short_code</text><polygon fill="#181818" points="49.5,982.3613,39.5,986.3613,49.5,990.3613,45.5,986.3613" style="stroke:#181818;stroke-width:1.0;"/><line style="stroke:#181818;stroke-width:1.0;stroke-dasharray:2.0,2.0;" x1="43.5" x2="318.5" y1="986.3613" y2="986.3613"/><text fill="#000000" font-family="sans-serif" font-size="13" lengthAdjust="spacing" textLength="158" x="55.5" y="981.6191">{ "url": "same_short_url" }</text><!--SRC=[rLLDRzf04BtxLunyQgMYK8fwGA8I5IYjIaGKdFHeRUmf7idikhiBJONuxvrT1soGJGbj3-M26S- - -NYFjvPiZd1_DuLvfhH5IN81SzHhIf2_lwzGyiEOn4ABPH28n2eDzmOr20EXUmY30AKb-zEXF8EWta7uh4RqC4Y55O_28DnXIcQy- -ME-0ZiGbnYE2ohpbUFIx8614mLOpbe8LD6I93MwEA-adz1akEcK991XyF0d-zyQ6fp0BUpUGHNfep31iALpiC1X3bNYTqpRDtmj1OMcn22fk6vsC5e0xYUHC1eiSd4szY5tlSgs8FSu70fdRR6VSjnebA4L_GDy8cCDQ-355jWHMxhPrB5IvFAbWS3uCzvaynvaaq5j7q3czskjfuIdt0qgykgdO4VP3E8ekcmry-qyTLRsdQlpjp8x8lFRjq0ohIPBGV86XdKw2-RVUQ_XjYaWBr67yWuYTeCQs9qAxb63hjcD2OMKx3A9yqqBKYAl9BqxzJgP7HLt-JVqcOpvaN2tAcXNOgdINZNxUrtvJRLX7UIXf6rk2mS4Gf6IOA6tK72vAbWoFI8cSe_98oAGgj2KzdmcVvHCe8bUFmlc3c9VH53aYucfz_jmqHhlWi-HJTJk1KBF9kNlOLB-2pN8gVqqClzlyGnvV7_sC6fh16VxUJE8OyFjHjZRILT-2YSbFZIP2jrDlFIbNZB44ki5dApoYqLV4L7jFJoh6brdrrf-IiRAbzxxasltydKIiDufOKb9IzUeE4IyNzq3rwgwQE9NsBzlm00]--></g></svg>